<?xml version="1.0" encoding="UTF-8"?>
<svg width="311px" height="107px" viewBox="0 0 311 107" version="1.1" xmlns="http://www.w3.org/2000/svg" xmlns:xlink="http://www.w3.org/1999/xlink">
    <!-- Generator: Sketch 52.6 (67491) - http://www.bohemiancoding.com/sketch -->
    <title>mlh-logo-monochrome-yellow</title>
    <desc>Created with Sketch.</desc>
    <g id="Page-1" stroke="none" stroke-width="1" fill="none" fill-rule="evenodd">
        <g id="mlh-logo-monochrome-yellow" transform="translate(-1.000000, -1.000000)" fill="#F8B92A">
            <g id="M">
                <path d="M99.85,2.41 C103.96945,4.1656886 107.248812,7.44863439 109,11.57 C109.930279,13.6741087 110.410546,15.949415 110.41,18.25 L110.41,104.31 C110.421107,105.841499 109.19145,107.093513 107.66,107.11 L87,107.11 C86.2692098,107.139538 85.5639848,106.838348 85.08,106.29 C84.5810553,105.745894 84.3153709,105.027828 84.34,104.29 L84.34,26.12 L67.79,26.12 L67.79,104.34 C67.8093594,105.076965 67.5443825,105.793119 67.05,106.34 C66.5563407,106.880734 65.8519094,107.180026 65.12,107.16 L46.47,107.16 C45.7326759,107.170685 45.0213137,106.887993 44.4924443,106.374127 C43.963575,105.860261 43.6605327,105.157326 43.65,104.42 L43.65,26.12 L27.07,26.12 L27.07,104.34 C27.1785647,105.115308 26.9161805,105.896531 26.3616243,106.449121 C25.807068,107.001711 25.024917,107.261318 24.25,107.15 L3.82,107.15 C3.04508304,107.261318 2.26293197,107.001711 1.70837572,106.449121 C1.15381948,105.896531 0.891435283,105.115308 1,104.34 L1,3.81 C0.891435283,3.03469248 1.15381948,2.25346857 1.70837572,1.70087884 C2.26293197,1.1482891 3.04508304,0.888681776 3.82,1 L93.11,1 C95.4309494,0.98955032 97.7278702,1.47006342 99.85,2.41 Z" id="Path"></path>
            </g>
            <g id="L" transform="translate(126.000000, 1.000000)">
                <path d="M74.19,80.38 C74.9435022,80.3642772 75.6690417,80.6653761 76.19,81.21 C76.7092824,81.7642868 76.9894856,82.5007185 76.97,83.26 L76.97,103.26 C76.9827557,104.003234 76.7025752,104.721645 76.19,105.26 C75.6722383,105.810403 74.9454971,106.115634 74.19,106.1 L3.69,106.1 C1.69,106.1 0.69,105.1 0.69,103.22 L0.69,2.88 C0.69,0.96 1.69,0 3.69,0 L25.33,0 C27.33,0 28.33,1 28.33,2.88 L28.33,77.65 C28.306875,78.4216915 28.6430142,79.1604589 29.24,79.65 C29.8218455,80.1622548 30.5749794,80.4370951 31.35,80.42 L74.19,80.38 Z" id="Path"></path>
            </g>
            <g id="H" transform="translate(219.000000, 0.000000)">
                <path d="M89.54,1 C90.3377775,0.977935392 91.1102461,1.28114734 91.68,1.84 C92.2598294,2.36372166 92.590511,3.10866383 92.59,3.89 L92.59,104.57 C92.590511,105.351336 92.2598294,106.096278 91.68,106.62 C91.1102461,107.178853 90.3377775,107.482065 89.54,107.46 L67.62,107.46 C66.8254565,107.480487 66.0566806,107.177308 65.49,106.62 C64.902668,106.101747 64.5704003,105.353232 64.58,104.57 L64.58,69.44 C64.6136937,68.6912184 64.3262981,67.9636348 63.79,67.44 C63.2366699,66.9213024 62.4977306,66.6473541 61.74,66.68 L31,66.68 C30.2194722,66.6550778 29.4584555,66.9266143 28.87,67.44 C28.2742494,67.9304899 27.9384019,68.6686165 27.96,69.44 L27.96,104.57 C27.96,106.49 26.96,107.46 24.96,107.46 L3.2,107.46 C1.2,107.46 0.2,106.46 0.2,104.57 L0.2,3.89 C0.2,1.96 1.2,1 3.2,1 L25,1 C27,1 28,2 28,3.89 L28,38 C28,39.92 29,40.88 31,40.88 L61.81,40.88 C62.583039,40.906501 63.3312673,40.6050303 63.87,40.05 C64.3772961,39.5075526 64.6596642,38.7926968 64.66,38.05 L64.66,3.89 C64.6505186,3.10889032 64.9785615,2.36168145 65.56,1.84 C66.1089239,1.29914409 66.8493933,0.997205119 67.62,1 L89.54,1 Z" id="Path"></path>
            </g>
        </g>
    </g>
</svg>